<?xml version="1.0" standalone="no"?>
<!DOCTYPE svg PUBLIC "-//W3C//DTD SVG 20010904//EN"
 "http://www.w3.org/TR/2001/REC-SVG-20010904/DTD/svg10.dtd">
<svg version="1.0" xmlns="http://www.w3.org/2000/svg"
 width="318.000000pt" height="302.000000pt" viewBox="0 0 318.000000 302.000000"
 preserveAspectRatio="xMidYMid meet">

<g transform="translate(0.000000,302.000000) scale(0.100000,-0.100000)"
fill="#000000" stroke="none">
<path d="M662 2688 c-104 -295 -101 -257 -47 -558 37 -206 42 -270 22 -270 -9
0 -18 4 -21 8 -2 4 -23 116 -46 247 -28 162 -41 260 -38 300 3 41 25 119 73
253 37 106 65 195 62 199 -15 15 -56 -22 -217 -196 -220 -238 -217 -229 -166
-439 106 -443 230 -929 238 -939 8 -10 80 -13 300 -13 l290 0 -6 23 c-57 206
-129 523 -129 569 0 90 34 141 238 362 232 251 224 246 436 246 95 0 160 4
164 10 7 12 -305 344 -355 378 -33 22 -37 22 -380 22 l-347 0 -71 -202z"/>
<path d="M1562 2431 c-7 -4 -49 -109 -93 -232 -107 -298 -106 -277 -35 -686
60 -347 64 -383 42 -383 -22 0 -24 7 -46 132 -11 62 -38 219 -61 348 -29 167
-39 252 -36 295 3 40 31 133 84 285 44 124 78 228 76 232 -7 13 -56 -18 -93
-58 -19 -22 -93 -102 -165 -179 -178 -191 -172 -184 -190 -221 -37 -78 -35
-93 122 -719 l148 -590 213 0 214 0 45 115 c25 63 52 123 61 133 18 21 75 23
91 3 7 -8 33 -67 60 -132 l47 -119 226 -3 226 -2 11 32 c38 119 284 1142 284
1183 1 62 -28 126 -80 180 -21 22 -103 110 -182 195 -78 85 -155 162 -169 171
-23 14 -80 18 -407 23 -209 3 -386 2 -393 -3z"/>
<path d="M544 1215 c-7 -17 -2 -49 28 -177 l20 -88 293 0 c162 0 296 4 299 8
3 5 -10 67 -28 138 l-32 129 -287 3 c-250 2 -288 0 -293 -13z"/>
<path d="M1864 835 c-7 -19 -21 -52 -30 -72 -9 -21 -22 -55 -29 -75 l-14 -38
104 0 104 0 -18 43 c-10 23 -30 72 -46 110 -31 76 -49 84 -71 32z"/>
<path d="M1347 593 c-13 -12 -6 -67 21 -188 l28 -120 167 -3 c103 -1 167 1
167 7 0 6 -11 31 -25 57 -29 55 -32 116 -10 190 8 27 15 52 15 57 0 9 -354 10
-363 0z"/>
<path d="M1761 583 c-5 -10 -16 -44 -26 -75 -20 -70 -9 -121 36 -173 98 -111
289 -42 289 106 0 26 -10 72 -21 103 l-22 56 -123 0 c-107 0 -125 -2 -133 -17z"/>
<path d="M2070 597 c0 -1 9 -28 20 -60 26 -75 25 -121 -5 -185 -14 -30 -25
-58 -25 -63 0 -5 80 -9 179 -9 162 0 180 2 185 18 13 46 56 249 56 268 0 12
-7 25 -16 28 -15 6 -394 9 -394 3z"/>
</g>
</svg>
